PathFileType	4	(X/Y/Z)	D:\TRACE\spotREDO_2-26-24\spot_justBody_Motion_3_5-platform.trc
DataRate	CameraRate	NumFrames	NumMarkers	Units	OrigDataRate	OrigDataStartFrame	OrigNumFrames
100.00	100.00	      54	5	mm	100.00	3501	      7000
Frame#	Time	Left_Front			Right_Front			Left_Aft			Right_Aft			Post			
		X1	Y1	Z1	X2	Y2	Z2	X3	Y3	Z3	X4	Y4	Z4	X5	Y5	Z5	

3501	35.000	-724.45520	21.38079	-568.60956	690.48077	26.28603	-484.03226	-795.48560	-22.19590	649.31543	774.74567	-14.99904	653.19354	-15.00326	665.32849	-947.92120	
3502	35.010	-725.17920	21.21131	-568.62085	689.92371	26.11497	-483.99673	-796.19208	-21.78345	649.46790	774.12024	-14.75289	653.05127	-15.69452	664.86432	-948.00024	
3503	35.020	-725.69794	20.93436	-568.68829	689.43091	26.06208	-484.12305	-796.53711	-21.71029	649.29065	773.46051	-14.56094	652.90979	-16.12284	664.61115	-948.31421	
3504	35.030	-726.20319	20.69613	-568.87378	688.98413	25.93804	-484.25089	-797.08423	-21.36739	649.11871	773.00629	-14.29786	652.88373	-16.48035	664.29712	-948.71576	
3505	35.040	-726.65021	20.52059	-568.96863	688.63184	25.80220	-484.23245	-797.67755	-20.86827	649.07025	772.70679	-14.15203	652.84888	-17.09980	663.76904	-949.18298	
3506	35.050	-727.06775	20.33761	-569.03430	687.93066	25.46554	-484.30984	-798.23749	-20.66012	649.00201	771.97339	-13.87820	652.77094	-17.63034	663.25830	-949.57544	
3507	35.060	-727.65936	19.97437	-569.06714	687.12555	25.11269	-484.55527	-798.71674	-20.35357	649.10156	771.42737	-13.64889	652.74823	-18.17675	662.79095	-950.31409	
3508	35.070	-727.96301	19.68028	-569.10944	686.86249	24.92115	-484.61243	-799.17395	-20.26890	648.96954	771.15582	-13.27900	652.66956	-18.37418	662.37042	-950.83282	
3509	35.080	-728.48462	19.39469	-569.19049	686.66827	24.65929	-484.57715	-799.53406	-20.06351	648.99689	770.66980	-13.15388	652.44080	-19.15869	661.90198	-951.42206	
3510	35.090	-728.91083	19.00197	-569.36255	686.25635	24.59259	-484.60501	-800.00061	-19.64096	648.84454	770.34406	-12.67741	652.53387	-19.20176	661.40045	-951.76324	
3511	35.100	-729.19763	18.54426	-569.39154	685.82617	24.30785	-484.73898	-800.36145	-19.25130	648.84143	770.02887	-12.52469	652.21674	-19.47637	660.82471	-952.02881	
3512	35.110	-729.59265	18.24666	-569.44434	685.40594	24.00348	-484.77969	-800.72559	-18.96970	648.71075	769.68121	-12.32477	652.15546	-19.93360	660.30585	-952.34589	
3513	35.120	-729.87299	17.97519	-569.52496	684.97003	23.49508	-485.05078	-801.01086	-18.50715	648.80396	769.16595	-11.92572	652.00580	-20.45700	659.87988	-952.69873	
3514	35.130	-730.09943	17.74732	-569.67767	684.74158	23.22283	-485.21338	-801.35089	-18.43088	648.52777	769.00055	-11.65715	651.94965	-20.70916	659.39154	-952.92242	
3515	35.140	-730.37372	17.45770	-569.75598	684.56177	23.02971	-485.25504	-801.72900	-17.84419	648.45203	768.79675	-11.25154	651.89258	-21.01109	658.76782	-953.40625	
3516	35.150	-730.59021	17.10751	-569.83630	684.36932	22.82860	-485.28305	-801.85522	-17.55496	648.36267	768.69281	-10.73809	651.81824	-21.67563	658.21582	-953.77979	
3517	35.160	-730.94409	16.78255	-569.96790	684.17938	22.55136	-485.59122	-802.05804	-17.13552	648.34924	768.43561	-10.31703	651.80621	-22.31049	657.78375	-954.20844	
3518	35.170	-731.10352	16.43818	-570.12634	684.16931	22.19579	-485.52051	-802.15222	-16.76759	648.28033	768.30273	-9.77332	652.03558	-21.47719	657.06787	-954.35736	
3519	35.180	-731.11859	15.94762	-570.26965	683.88477	21.82041	-485.68478	-802.36169	-16.57939	648.07507	768.24103	-9.31542	651.92792	-21.88382	656.31372	-955.34985	
3520	35.190	-731.12537	15.63052	-570.37817	683.59100	21.49694	-485.90533	-802.32410	-16.21835	648.13129	768.16083	-8.98214	651.91571	-21.11182	655.82520	-956.07867	
3521	35.200	-730.97961	15.18605	-570.60474	683.51477	21.35827	-486.05920	-802.34009	-15.78024	648.03577	767.97577	-8.77836	651.78406	-20.92010	655.15997	-956.73059	
3522	35.210	-731.18274	14.88939	-570.74176	683.59332	21.07276	-486.07190	-802.37067	-15.29401	647.88959	767.77106	-8.40511	651.64099	-21.31787	654.59125	-957.23065	
3523	35.220	-731.37384	14.55441	-570.81409	683.69983	20.56156	-486.02957	-802.47595	-14.94343	647.74414	767.70941	-7.99976	651.54901	-21.08272	653.90582	-957.73462	
3524	35.230	-731.41638	14.23829	-570.87048	683.68585	20.24012	-486.20535	-802.44104	-14.56840	647.67029	767.90997	-7.41771	651.49878	-21.31668	653.43445	-958.33539	
3525	35.240	-731.44086	13.88140	-570.96387	683.58771	20.02955	-486.28555	-802.58081	-14.25743	647.45679	767.98291	-7.03621	651.35876	-21.33458	652.79541	-958.83307	
3526	35.250	-731.22974	13.44308	-571.32507	683.54218	19.79449	-486.55951	-802.64172	-13.83017	647.40948	767.99426	-6.57981	651.16272	-21.68290	652.26880	-959.21320	
3527	35.260	-731.19635	13.04683	-571.16278	683.61255	19.51965	-486.51868	-802.59247	-13.25390	647.36011	767.92743	-6.32152	651.00085	-21.67576	651.58862	-959.46515	
3528	35.270	-731.14697	12.63432	-571.16699	683.60095	19.17836	-486.53442	-802.57758	-12.93978	647.24231	767.78857	-6.09146	650.95728	-21.60579	651.06042	-959.89679	
3529	35.280	-731.23737	12.27340	-571.33197	683.60449	18.52201	-486.64398	-802.50177	-12.69587	647.17804	767.74091	-5.84467	650.94159	-21.70846	650.22675	-960.48523	
3530	35.290	-731.34491	11.98001	-571.39471	683.60913	18.22288	-486.79730	-802.47473	-12.28562	647.12292	767.70184	-5.25442	650.83344	-21.79522	649.83142	-960.94482	
3531	35.300	-731.27832	11.59579	-571.59418	683.75861	17.97250	-486.85114	-802.48364	-11.86624	646.93610	767.98596	-4.61060	650.75623	-21.56177	649.16467	-961.47089	
3532	35.310	-731.10663	11.24936	-571.71094	683.94635	17.73726	-486.96515	-802.27362	-11.37062	646.88879	768.24493	-4.18191	650.68628	-21.40517	648.53564	-961.79669	
3533	35.320	-730.95447	10.77667	-571.78082	684.10791	17.44790	-487.24536	-801.93518	-11.03004	646.79700	768.52960	-4.07006	650.50891	-21.33242	647.89197	-962.68372	
3534	35.330	-730.76996	10.54729	-571.77710	684.41071	17.04005	-487.20163	-801.67047	-10.57583	646.79193	768.68256	-3.99362	650.45575	-21.01315	647.20581	-963.51819	
3535	35.340	-730.26892	10.11818	-571.97137	684.73926	16.77083	-487.30368	-801.41040	-10.34883	646.61389	768.91766	-3.78266	650.13495	-20.33235	646.48517	-963.59418	
3536	35.350	-729.91931	9.81969	-572.12305	685.04474	16.46272	-487.48691	-801.12970	-9.85498	646.57220	769.16632	-3.30614	649.68298	-19.87797	645.91571	-964.21973	
3537	35.360	-729.84155	9.63459	-572.22638	685.15820	16.34816	-487.59421	-800.82739	-9.45308	646.55511	769.70331	-2.58837	649.82977	-19.95376	645.32794	-965.04291	
3538	35.370	-729.57428	9.10676	-572.35065	685.66589	15.80796	-487.49069	-800.64746	-8.97030	646.43494	770.08752	-2.06577	650.06427	-19.95956	644.61932	-965.56281	
3539	35.380	-729.19318	8.48546	-572.45087	685.86017	15.50836	-487.60153	-800.61475	-8.55288	646.31165	770.77692	-2.18992	650.03723	-19.52457	643.92407	-966.06482	
3540	35.390	-728.65991	8.11822	-572.56854	686.26196	15.03509	-487.84479	-800.18506	-8.15119	646.35309	770.31360	-1.55235	649.88428	-19.32996	643.53693	-966.48462	
3541	35.400	-728.25775	7.82087	-572.66364	686.71271	14.73677	-487.86292	-799.77905	-7.55926	646.34644	770.50110	-0.96448	649.85510	-18.86629	642.84753	-966.92432	
3542	35.410	-728.20288	7.63625	-572.63843	686.98755	14.45177	-487.82007	-799.52258	-7.50841	645.94781	770.91754	-0.48867	649.72186	-18.49691	642.17249	-967.14026	
3543	35.420	-727.73584	7.43397	-572.73230	687.25092	14.32444	-487.94730	-799.11914	-7.07185	645.80408	771.35834	0.13459	649.75702	-18.26855	641.74872	-967.40967	
3544	35.430	-727.17383	6.90563	-572.89996	687.53198	14.00149	-488.10275	-798.67487	-6.58602	645.61578	771.69080	0.32730	649.78949	-17.94450	641.30334	-967.84192	
3545	35.440	-726.74774	6.51449	-572.94116	687.86340	13.75522	-488.25534	-798.24347	-6.31004	645.64221	772.11572	0.66452	649.74023	-17.53532	640.71545	-968.45483	
3546	35.450	-726.43738	6.10622	-573.02734	688.60168	13.37194	-488.28671	-797.78625	-6.16454	645.56671	772.60071	0.88016	649.51111	-17.17655	640.24384	-968.79071	
3547	35.460	-726.11029	6.00096	-573.07678	688.99512	12.98519	-488.46402	-797.47937	-5.85132	645.47198	772.87836	1.08148	649.38849	-16.93780	639.74939	-969.39337	
3548	35.470	-725.71484	5.71683	-573.16931	689.25385	12.89789	-488.67636	-797.01044	-5.16711	645.66211	773.44611	1.58443	649.34509	-16.30589	639.19550	-969.78058	
3549	35.480	-725.20105	5.41791	-573.34973	689.46832	12.81670	-488.76575	-796.64862	-5.25780	645.48761	773.76923	1.90611	649.30353	-15.78600	638.54205	-970.20587	
3550	35.490	-724.85339	5.32943	-573.28571	689.80902	12.66309	-488.87244	-796.16522	-5.15965	645.32983	774.24817	2.33714	649.22217	-16.05812	638.20917	-970.47211	
3551	35.500	-724.23895	4.80047	-573.35730	690.49158	12.13112	-488.76746	-795.60370	-4.77446	645.28418	774.50525	2.58053	649.09686	-14.78147	637.71442	-971.02252	
3552	35.510	-723.61823	4.43096	-573.51617	691.02020	11.87909	-488.90414	-795.11444	-4.24832	645.29022	775.15698	2.89419	648.91968	-14.22575	637.27124	-971.56897	
3553	35.520	-723.14423	4.10935	-573.64020	691.58459	11.65020	-489.06210	-794.74994	-4.04665	645.23108	775.41504	3.05634	648.85400	-13.88241	636.78442	-971.88116	
3554	35.530	-722.86786	3.93514	-573.76025	692.01062	11.42827	-489.03922	-794.33032	-3.83134	645.03741	775.98151	3.40547	648.88556	-13.49749	636.40155	-972.22717	
